<svg width="1261" height="557" viewBox="0 0 1261 557" fill="none" xmlns="http://www.w3.org/2000/svg">
<path d="M958.603 547.148L958.653 513.733C958.699 511.983 958.72 510.193 958.72 508.368V468.433V49.4522C958.72 47.0002 958.68 44.6418 958.598 42.3805V10.6467L1255.59 9.65845L1260.42 29.9004C1257.62 29.7985 1201.61 30.7626 1198.63 30.7626H1037.73C1032.57 30.7626 1028 31.0399 1024.34 31.7719C1022.52 32.1362 1020.5 32.6916 1018.63 33.63C1016.83 34.5312 1014.24 36.2413 1012.67 39.3835C1011.29 42.1425 1010.76 45.4916 1010.47 48.2355C1010.15 51.3035 1010.01 55.0291 1010.01 59.304V256.962H1144.53L1149.36 277.873H1009.15L1009.92 485.335L1009.41 547.148H958.603Z" fill="#1C2B3A"/>
<path d="M828.143 44.1608C842.883 51.8043 856.105 61.5051 867.776 73.2445L870.087 75.6214C872.061 77.6894 873.991 79.8482 875.877 82.0965H888.574V32.7531L866.611 23.8065L865.253 23.4009C860.048 21.8394 852.872 19.9729 843.649 17.803L843.39 17.7417L843.135 17.6662C835.313 15.3656 825.764 13.0348 814.447 10.6771L809.486 9.66313L809.307 9.6254L809.128 9.58296C782.563 3.20734 754.314 0 724.357 0C645.793 0.000368439 581.616 26.1555 531.047 78.2671C480.951 131.001 455.709 197.764 455.709 279.321L455.78 287.295C457.242 367.805 480.988 431.592 526.275 479.601L528.52 481.949C576.739 531.74 641.653 557 724.357 557C759.546 557 791.872 551.936 821.413 541.913C844.591 534.05 867.871 522.553 888.574 507.067L883.745 492.579C867.233 503.694 848.753 514.159 828.341 520.833C798.925 530.45 768.904 535.268 738.317 535.269C668.138 535.269 612.187 512.224 571.742 465.424C531.483 419.388 511.924 356.682 511.924 278.5C511.924 201.885 531.24 139.298 570.799 91.7125L570.841 91.6653L570.879 91.6182C611.246 44.3306 666.065 20.9111 734.209 20.9108C750.318 20.9108 766.16 22.9206 781.704 26.9426C796.717 30.6958 811.228 35.9589 825.224 42.7224L828.015 44.0948L828.077 44.1278L828.143 44.1608Z" fill="#1C2B3A"/>
<path d="M37.6269 547.054H48.2921L241.498 67.6089L268.873 135.218L359.348 358.668L360.056 361.087L435.13 547.054H485.979L340.554 195.583L261.396 4.82916H237.345L86.9254 366.187L29.651 503.78L29.6133 503.865L29.5756 503.954C28.7913 505.737 27.983 507.485 27.1504 509.199L11.3279 547.054H37.6269Z" fill="#1C2B3A"/>
<path d="M105.463 379.578L165.32 231.802L113.95 358.668H236.649L241.072 379.578H105.463Z" fill="#1C2B3A"/>
</svg>
